<svg width="508" height="551" viewBox="0 0 508 551" fill="none" xmlns="http://www.w3.org/2000/svg">
<path fill-rule="evenodd" clip-rule="evenodd" d="M210.668 2.83514C49.5573 24.1073 -24.6292 213.135 79.3447 337.456C200.97 482.882 439.704 395.903 439.86 206.107C439.956 82.4581 332.1 -13.1968 210.668 2.83514ZM210.69 28.6763C205.411 45.4815 205.47 45.417 197.957 42.7057C194.349 41.4063 186.712 40.95 168.052 40.9124L142.99 40.8587L144.295 36.9232C147.286 27.9139 183.442 14.2122 211.275 11.5437C216.269 11.0659 216.274 10.9155 210.69 28.6763ZM276.193 14.1048C298.553 18.9476 323.116 29.0522 341.701 41.052C350.669 46.8452 351.55 48.1177 346.583 48.1284C344.752 48.1338 341.846 48.8693 340.123 49.766C337.212 51.2854 336.74 51.1297 333.287 47.5056C328.738 42.7218 324.292 41.75 317.504 44.0587C312.66 45.6962 312.097 45.6533 309.256 43.4198C304.434 39.6292 299.644 39.103 294.231 41.7822C290.445 43.656 289.365 43.7956 288.866 42.4963C283.791 29.267 260.62 38.3031 263.283 52.4774L264.057 56.5954H250.137C237.523 56.5954 216.108 51.5431 212.215 47.6506C211.994 47.4251 214.003 40.3325 216.688 31.887C219.373 23.4415 221.564 15.1249 221.564 13.4122V10.2927L243.06 10.937C258.23 11.3934 267.977 12.3276 276.193 14.1048ZM135.316 39.8816C135.053 40.6816 133.233 41.75 131.283 42.26L127.728 43.1943L130.752 40.8426C134.21 38.1527 136.02 37.7769 135.316 39.8816ZM282.132 45.1271C282.98 46.1419 283.727 48.7297 283.797 50.8774C283.867 53.025 284.602 55.5001 285.434 56.3806C286.267 57.2612 286.981 59.1672 287.013 60.6168C287.217 69.0086 302.114 108.047 305.11 108.047C310.002 108.047 309.487 104.643 300.342 76.4501C295.637 61.9591 291.793 49.6586 291.793 49.1109C291.793 47.3714 302.425 48.0264 304.278 49.8787C305.244 50.8452 306.458 51.2532 306.979 50.7861C307.494 50.319 307.554 50.9472 307.113 52.1821C306.147 54.8612 308.665 64.0476 310.12 63.151C310.679 62.8074 310.861 63.2423 310.523 64.1282C309.562 66.6248 317.574 89.4916 319.921 90.9573C326.445 95.0324 326.596 89.148 320.436 70.5227C314.062 51.2586 314.078 50.5445 320.775 50.5445C326.44 50.5445 327.068 51.2854 330.967 62.5551C334.393 72.4609 336.39 75.2206 339.312 74.0985C342.453 72.8958 342.679 70.3831 340.278 63.4033L338.012 56.8209L340.633 56.1175C349.853 53.6478 350.599 54.7485 361.286 86.705L370.302 113.674L369.69 136.283L369.083 158.892L373.943 173.104L378.803 187.321L373.739 191.353C365.421 197.979 343.753 214.343 336.176 219.729C329.146 224.722 324.829 224.904 326.66 220.137C327.116 218.95 326.826 218.725 325.715 219.412C324.684 220.045 324.405 219.933 324.92 219.09C325.924 217.468 307.79 163.005 305.669 161.26C304.82 160.567 299.386 158.425 293.597 156.503C283.426 153.12 282.852 152.728 276.569 144.863C267.343 133.292 267.214 133.571 282.105 132.863L294.821 132.256L294.649 128.627C294.558 126.629 288.855 107.945 281.976 87.1131C267.66 43.7526 267.756 45.7016 279.839 43.4198C280.258 43.3446 281.289 44.1124 282.132 45.1271ZM125.188 47.0385C123.572 48.8264 122.885 51.3821 122.885 55.6129C122.885 61.2611 122.638 61.7497 118.97 63.2906C113.278 65.6798 109.884 71.6985 110.673 77.9857C111.269 82.7319 111.06 83.1776 107.086 85.5238C102.081 88.4768 100.051 93.0029 100.884 99.3652C101.442 103.623 101.201 104.106 97.9947 105.223C85.5201 109.572 88.5112 131.655 101.571 131.655C103.767 131.655 105.325 132.283 105.325 133.163C105.325 137.877 97.2697 158.317 93.5107 163.128C91.1748 166.124 87.593 170.892 85.5578 173.721C81.047 179.992 81.0039 179.992 73.3517 174.199C52.8705 158.693 47.7798 156.229 48.639 162.205C48.8968 164.025 52.7954 167.622 60.5282 173.19C66.8541 177.743 73.0832 182.231 74.3774 183.165C76.6543 184.814 76.6113 185.012 72.8577 190.236C70.7365 193.189 67.928 199.063 66.6177 203.278C60.3348 223.508 53.8049 241.817 52.8705 241.817C33.5922 241.817 36.2504 173.421 57.3921 125.641C69.7108 97.7921 88.5381 73.626 114.405 52.4666C123.889 44.7137 130.145 41.5621 125.188 47.0385ZM212.907 55.9887L234.951 63.8597H250.626H266.296L275.586 92.611C280.698 108.423 285.128 122.033 285.434 122.855C285.859 124.015 278.276 124.423 251.706 124.675L217.429 124.992L209.911 134.737L202.393 144.481L191.395 148.304C178.572 152.766 178.797 153.023 183.458 138.957C188.715 123.086 192.426 124.39 141.948 124.39C97.8335 124.39 96.8509 124.245 96.8509 117.69C96.8509 112.042 98.6981 111.714 134.269 111.07L167.686 110.468V107.44V104.412L137.061 104.09L106.436 103.768L107.247 99.2471C108.794 90.6191 109.164 90.4902 133.319 90.4902C152.865 90.4902 154.997 90.2862 156.055 88.3103C158.407 83.9077 156.168 83.3064 136.148 82.9574L116.827 82.6245L117.241 78.3884C117.939 71.1348 120.039 69.916 131.853 69.8945C143.559 69.873 145.675 69.0784 145.09 64.9335C144.708 62.249 144.085 62.0181 136.396 61.6799C129.538 61.3846 128.239 61.0034 128.829 59.4625C129.221 58.4423 129.543 56.5632 129.543 55.2853C129.543 48.676 132.1 48.123 162.623 48.123H190.858L212.907 55.9887ZM379.238 72.6381C393.554 88.6916 412.875 117.658 412.875 123.064C412.875 123.961 407.242 124.39 395.321 124.39H377.761V117.872C377.761 113.158 375.753 105.282 370.495 89.3788C361.914 63.4141 361.968 63.8597 367.322 63.8597C370.871 63.8597 372.445 65.0194 379.238 72.6381ZM418.949 136.192C427.321 158.5 433.383 195.675 431.692 214.338C428.738 246.848 419.126 284.329 415.319 278.171C414.615 277.032 415.303 274.675 417.365 271.159C421.054 264.861 419.974 258.294 414.545 254.026L411.431 251.578L413.971 248.351C417.939 243.304 417.461 235.32 412.918 230.778C409.39 227.251 409.363 227.127 411.264 223.138C413.933 217.543 412.601 211.106 408.085 207.766L404.616 205.205L406.925 201.415C414.191 189.506 402.033 175.643 389.715 181.791C384.833 184.223 384.919 184.325 380.333 170.387C377.159 160.733 376.569 157.136 376.671 147.993C376.875 129.851 375.393 131.161 396.583 130.393C406.544 130.033 415.061 129.625 415.512 129.486C415.963 129.346 417.51 132.363 418.949 136.192ZM145.89 133.126C170.839 132.847 176.767 133.088 176.767 134.382C176.767 135.263 175.178 140.589 173.244 146.226C166.398 166.124 157.392 194.956 157.414 196.889C157.43 197.962 160.426 203.165 164.073 208.443L170.71 218.048V229.881V241.715L161.5 235.105C147.173 224.829 147.957 224.222 138.662 252.716C134.86 264.367 129.259 281.526 126.225 290.847C119.475 311.577 116.516 315.196 111.393 309.021C110.571 308.028 109.411 307.518 108.821 307.883C106.109 309.558 109.309 294.025 113.831 283.583C114.405 282.251 116.843 274.627 119.249 266.638C121.655 258.643 124.41 250.053 125.371 247.546C127.707 241.452 127.578 239.395 124.85 239.395C121.193 239.395 120.329 241.285 111.226 269.161C106.463 283.754 102.092 295.872 101.517 296.098C100.943 296.318 100.83 297.086 101.27 297.794C101.743 298.568 101.496 298.739 100.653 298.213C99.8688 297.735 99.5358 296.855 99.901 296.259C100.266 295.663 98.3706 294.058 95.6856 292.683C89.494 289.532 89.4993 289.467 96.7596 267.996C103.257 248.791 104.267 244.099 102.07 243.363C99.0633 242.348 96.0293 247.846 90.9868 263.449C86.1162 278.509 85.6007 279.529 83.1413 278.761C81.6914 278.31 79.2748 277.65 77.7659 277.29C73.6149 276.302 73.3518 272.184 76.7402 261.156C78.4318 255.647 79.5594 250.719 79.2426 250.214C78.9311 249.704 79.3607 249.011 80.1931 248.673C81.0308 248.34 80.2844 248.018 78.5338 247.964C74.7587 247.852 73.4645 249.269 71.4239 255.739C70.5862 258.402 69.4263 261.178 68.8571 261.902C68.2825 262.633 68.218 263.674 68.712 264.216C69.2061 264.764 68.9161 264.812 68.0731 264.324C67.23 263.841 66.795 263.035 67.1011 262.536C67.7401 261.5 61.7418 257.677 59.9214 257.967C56.5168 258.509 58.6379 246.574 64.7329 230.923C65.6404 228.593 68.4006 220.147 70.8601 212.158C74.5278 200.26 76.214 196.647 80.177 192.185C82.8459 189.189 84.6556 187.418 84.2045 188.25C82.9318 190.612 84.14 190.032 86.6747 187.058C88.5542 184.857 88.5864 184.663 86.8627 185.995C82.5291 189.35 85.01 185.168 94.327 173.41C102.838 162.661 104.272 160.095 107.172 150.419C110.974 137.706 113.879 130.543 114.54 132.256C114.84 133.035 126.101 133.346 145.89 133.126ZM266.972 143.289C277.847 158.049 278.002 158.178 290.284 162.602L300.664 166.339L305.255 180.658C312.387 202.902 312.628 200.013 302.372 214.875L293.382 227.895L292.593 240.002C291.696 253.811 293.371 251.492 274.276 265.392C261.57 274.643 262.848 274.477 246.137 269.059C230.532 263.996 229.581 263.959 217.552 267.889C212.381 269.575 207.494 270.552 206.689 270.053C202.957 267.744 183.141 253.333 180.822 251.234C178.491 249.129 178.126 247.132 177.363 232.335L176.509 215.788L170.586 206.472C163.466 195.289 163.525 197.656 169.867 177.662L175.049 161.329L187.77 157.029C206.963 150.543 207.081 150.468 214.303 140.685L220.962 131.66L239.73 131.724L258.499 131.789L266.972 143.289ZM400.401 190.51C402.017 192.255 403.032 194.478 402.656 195.45C402.286 196.427 401.98 197.415 401.98 197.651C401.98 197.882 390.321 206.558 376.075 216.921C361.828 227.283 349.858 236.582 349.477 237.581C347.603 242.456 353.483 245.248 355.943 240.652C356.764 239.122 357.924 238.547 359.213 239.041C360.453 239.519 360.91 239.326 360.416 238.531C359.401 236.888 362.714 234.091 364.422 235.143C365.131 235.583 365.566 235.444 365.383 234.832C365.201 234.225 369.491 230.37 374.92 226.268C384.629 218.934 387.223 217.452 385.515 220.212C384.978 221.087 385.188 221.28 386.068 220.738C386.852 220.255 387.212 219.412 386.874 218.869C386.541 218.322 389.119 215.739 392.609 213.125C400.374 207.31 402.119 206.241 401.759 207.53C401.604 208.078 402.409 210.268 403.548 212.4C407.736 220.26 407.908 220.035 384.511 236.85C369.824 247.406 366.452 252.571 373.524 253.677C375.57 253.994 375.661 253.838 374.131 252.673C372.633 251.535 372.783 251.395 374.995 251.878C376.472 252.201 377.562 251.911 377.417 251.229C377.272 250.547 377.911 249.715 378.84 249.376C379.995 248.958 380.22 249.29 379.555 250.439C378.98 251.422 379.034 251.696 379.689 251.1C380.296 250.547 380.79 249.639 380.79 249.092C380.79 248.023 404.874 229.71 406.281 229.71C406.743 229.71 406.372 230.633 405.454 231.761C404.541 232.888 404.385 233.457 405.11 233.022C406.797 232.013 410.76 240.206 409.863 242.853C409.492 243.948 405.4 247.567 400.766 250.896C392.625 256.748 390.133 259.884 391.653 262.343C392.684 264.018 397.716 261.886 402.989 257.537C406.63 254.536 411.323 252.249 408.928 254.638C408.536 255.035 409.277 257.838 410.577 260.866C413.525 267.749 413.998 267.164 393.592 282.004C385.22 288.093 375.237 295.352 371.419 298.138C365.517 302.439 361.119 304.173 342.357 309.606C320.297 316.001 320.221 316.033 307.768 325.075L295.288 334.138L289.607 330.105C256.582 306.67 244.467 297.097 245.992 295.652C247.646 294.079 268.508 278.922 284.527 267.647C300.197 256.614 298.913 258.584 299.831 244.238C300.675 231.165 301.459 229.001 308.59 220.061C309.906 218.413 310.749 216.7 310.475 216.255C309.927 215.374 313.047 213.866 314.502 214.311C314.986 214.456 317.026 219.482 319.029 225.473C322.632 236.254 326.204 239.841 328.942 235.412C329.409 234.654 329.093 234.558 328.121 235.159C327.036 235.825 326.826 235.669 327.449 234.66C327.954 233.844 329.109 233.463 330.016 233.812C330.929 234.161 332.046 233.844 332.503 233.103C333.007 232.292 332.782 232.099 331.939 232.625C331.171 233.097 330.543 233.205 330.543 232.861C330.543 232.518 332.991 230.799 335.988 229.044C338.984 227.288 341.438 225.334 341.438 224.7C341.438 224.072 342.378 223.712 343.527 223.911C344.73 224.115 345.632 223.492 345.654 222.451C345.67 221.452 346.593 220.625 347.71 220.614C348.827 220.609 350.191 220.115 350.734 219.514C351.314 218.88 350.975 218.843 349.912 219.422C346.755 221.151 349.021 219.283 359.353 211.643C365.115 207.385 370.023 204.572 370.855 205.05C371.655 205.511 371.908 205.442 371.414 204.899C370.415 203.793 372.584 200.658 374.351 200.658C374.974 200.658 375.092 201.34 374.614 202.172C374.104 203.052 374.201 203.262 374.845 202.676C375.452 202.118 375.946 201.216 375.946 200.663C375.946 198.961 392.7 187.342 395.154 187.342C396.422 187.342 398.784 188.765 400.401 190.51ZM165.866 249.897C192.324 269.736 204.401 278.138 206.447 278.138C207.575 278.138 213.101 276.732 218.723 275.019L228.942 271.905L239.478 275.202C245.278 277.022 250.444 278.734 250.965 279.019C251.485 279.303 247.426 282.895 241.948 287.008C236.471 291.115 231.783 295.298 231.53 296.297C231.117 297.907 231.224 297.907 232.476 296.297C233.646 294.788 233.78 294.944 233.286 297.199C232.792 299.464 233.877 300.651 239.757 304.28C243.645 306.68 247.141 309.461 247.528 310.465C247.909 311.464 249.021 311.98 249.993 311.609C250.965 311.233 252.135 311.534 252.592 312.275C253.091 313.086 252.871 313.279 252.022 312.753C251.254 312.28 250.626 312.178 250.626 312.527C250.626 312.871 251.781 313.778 253.193 314.535C255.26 315.641 255.599 315.587 254.917 314.272C254.455 313.375 255.26 313.993 256.71 315.647C258.16 317.306 260.244 318.664 261.345 318.675C262.483 318.685 263.165 319.469 262.934 320.506C262.714 321.504 262.918 321.939 263.385 321.472C264.529 320.328 278.717 330.03 277.879 331.383C277.519 331.968 277.863 332.838 278.641 333.321C279.527 333.869 279.737 333.676 279.195 332.801C277.755 330.47 279.511 331.206 285.257 335.335C293.248 341.085 297.641 345.058 295.122 344.258C292.083 343.292 292.507 344.119 296.336 346.61C299.23 348.494 299.45 348.51 298 346.749C297.018 345.547 296.867 344.72 297.63 344.72C298.945 344.72 302.688 349.364 302.688 350.991C302.688 352.575 296.115 358.035 294.225 358.024C293.221 358.019 281.23 349.847 267.579 339.872C253.923 329.891 241.524 321.391 240.015 320.983C235.751 319.824 231.337 324.973 234.774 327.099C235.375 327.469 235.644 326.546 235.365 325.048C235.021 323.206 235.44 323.571 236.653 326.165C237.641 328.28 239.145 330.428 239.999 330.938C240.955 331.512 240.853 331.007 239.73 329.606C237.964 327.41 238.007 327.41 241.239 329.515C244.386 331.56 246.153 333.735 243.173 331.893C242.303 331.351 242.104 331.56 242.652 332.446C243.135 333.225 244.059 333.536 244.708 333.134C246.26 332.178 249.595 334.975 248.677 336.462C248.279 337.096 248.698 337.45 249.601 337.241C251.604 336.779 259.358 342.121 258.558 343.41C257.988 344.333 264.266 349.563 265.947 349.563C266.435 349.563 264.991 348.199 262.736 346.535C253.472 339.705 261.35 344.135 272.428 351.99C284.044 360.22 288.426 364.167 284.119 362.518C282.825 362.019 280.596 363.066 277.863 365.466C272.659 370.035 273.814 370.502 253.58 355.651C243.151 347.995 235.988 343.528 234.495 343.754C231.208 344.247 229.044 347.839 230.908 349.702C231.992 350.787 232.17 350.508 231.649 348.527C231.278 347.098 231.461 345.928 232.062 345.928C232.669 345.928 233.249 347.098 233.356 348.532C233.464 349.966 234.205 351.732 234.999 352.467C236.095 353.472 236.197 353.353 235.418 351.984C234.849 350.986 236.272 351.743 238.571 353.676C240.874 355.603 242.754 357.6 242.754 358.11C242.754 358.626 243.253 359.501 243.86 360.054C244.51 360.65 244.563 360.376 243.994 359.394C243.328 358.25 243.554 357.901 244.703 358.282C245.632 358.594 246.389 359.431 246.389 360.156C246.389 360.875 246.883 361.922 247.49 362.475C248.129 363.061 248.226 362.851 247.721 361.971C246.421 359.716 248.865 360.14 250.782 362.508C252.194 364.253 252.189 364.403 250.739 363.528C249.611 362.851 249.321 362.959 249.874 363.85C250.331 364.591 251.367 364.956 252.178 364.666C253.859 364.065 265.737 372.387 264.69 373.434C264.314 373.809 263.079 373.358 261.946 372.435C260.099 370.916 259.965 371.034 260.625 373.589C261.028 375.157 261.049 376.129 260.673 375.748C260.298 375.372 258.627 376.134 256.957 377.444C252.79 380.725 252.135 380.569 243.559 374.33C233.732 367.184 230.725 366.035 228.62 368.623C227.46 370.057 227.439 370.352 228.529 369.697C229.533 369.095 230.091 369.627 230.193 371.281C230.44 375.377 230.596 375.946 231.751 377.004C232.4 377.6 232.454 377.326 231.885 376.344C231.219 375.2 231.445 374.846 232.599 375.232C233.523 375.538 234.28 376.381 234.28 377.106C234.28 377.825 234.774 378.867 235.381 379.425C236.02 380.011 236.116 379.796 235.612 378.921C234.334 376.698 235.896 377.074 239.397 379.828C241.368 381.374 241.835 382.25 240.692 382.25C239.709 382.25 238.27 383.64 237.496 385.342C236.718 387.044 235.579 388.129 234.962 387.742C234.344 387.361 233.501 387.602 233.082 388.284C231.461 390.904 228.04 388.961 205.287 372.456L181.767 355.404L171.768 340.682C155.953 317.402 155.695 317.107 142.888 307.582C136.197 302.605 130.929 298.165 131.181 297.719C131.434 297.268 135.826 283.964 140.944 268.147C146.062 252.335 150.631 239.411 151.099 239.428C151.56 239.444 158.208 244.152 165.866 249.897ZM51.4046 254.241C51.8825 262.117 57.1773 267.239 64.8456 267.239C67.4984 267.239 67.7938 267.749 67.8206 272.388C67.8582 279.814 73.1477 285.397 80.1394 285.397C82.4324 285.397 83.3668 286.536 85.112 291.448C87.3835 297.837 91.5131 301.139 97.2375 301.139C99.7668 301.139 100.261 301.837 100.857 306.283C102.505 318.6 118.712 322.358 125.65 312.033C129.291 306.621 129.071 306.584 140.31 314.455C149.321 320.763 153.413 325.429 163.842 341.273L166.049 344.629L153.547 353.794C137.335 365.681 136.557 366.357 137.126 368.081C138.297 371.635 142.915 369.745 155.577 360.526C171.268 349.106 169.711 349.493 174.147 355.92C176.504 359.334 184.232 365.734 197.173 374.985C219.12 390.674 218.583 389.89 211.087 395.409L205.545 399.484L195.696 397.38C137.459 384.929 87.6735 346.433 60.6839 292.978C54.0036 279.744 44.8371 253.489 44.7995 247.465C44.7673 242.81 51.1038 249.307 51.4046 254.241ZM410.641 285.553C416.307 304.457 364.97 360.183 322.106 381.659C293.903 395.79 230.537 407.436 218.503 400.703C214.851 398.657 223.116 394.083 227.471 395.737C233.968 398.206 244.569 392.413 244.569 386.395C244.569 384.327 244.698 384.317 249.021 385.96C255.83 388.547 266.366 383.205 266.366 377.165C266.366 375.119 266.989 374.926 271.51 375.565C277.831 376.456 284.092 373.069 286.133 367.657C287.421 364.253 287.76 364.113 292.969 364.752C306.292 366.384 314.481 349.96 304.584 341.45C300.535 337.971 299.966 338.825 312.075 330.122C320.586 324.001 324.899 321.832 334.022 319.083C350.573 314.1 348.994 313.107 355.089 332.312C359.079 344.87 360.915 349.058 362.569 349.38C367.413 350.315 366.505 344.188 358.279 320.565C355.712 313.193 355.819 312.941 362.628 310.804C365.292 309.966 372.375 305.698 378.368 301.317C411.114 277.381 408.569 278.622 410.641 285.553ZM304.203 425.207C268.986 435.102 262.37 473.883 293.554 487.671C297.973 489.625 302.667 490.635 327.514 494.957C361.35 500.852 351.475 532.239 316.613 529.603C305.712 528.782 297.56 524.868 290.831 517.227L285.929 511.66L277.358 515.971C267.413 520.98 267.73 520.213 272.525 527.686C294.462 561.86 361.237 555.342 369.099 518.264C374.276 493.84 359.986 479.907 323.878 474.162C300.159 470.383 293.935 466.248 295.933 455.585C298.736 440.649 330.72 437.932 344.666 451.451L348.699 455.355L357.178 451.253C366.951 446.528 366.715 447.027 362.166 440.751C352.227 427.033 324.329 419.548 304.203 425.207ZM1.75353 428.552C1.43133 429.384 1.31318 456.219 1.48502 488.176L1.80188 546.285L12.3968 546.634L22.9919 546.988V503.96C22.9919 480.299 23.4 460.949 23.8994 460.96C24.3988 460.971 28.3512 465.91 32.6794 471.94C55.0293 503.053 61.8653 511.783 63.8629 511.735C65.1786 511.708 73.0456 502.146 84.7415 486.361C95.0626 472.433 103.912 461.013 104.401 460.987C104.895 460.96 105.438 480.143 105.615 503.612L105.931 546.285H116.226H126.515V486.967V427.645L114.405 427.317L102.301 426.984L83.7588 452.434C73.5612 466.436 64.7598 477.888 64.2067 477.888C63.6535 477.888 58.1493 470.941 51.9684 462.452C45.7929 453.964 37.4479 442.523 33.4312 437.03L26.1226 427.044H14.228C5.82935 427.044 2.16165 427.484 1.75353 428.552ZM148.918 464.965C148.918 485.872 149.471 505.915 150.143 509.501C159.325 558.263 234.86 563.208 249.729 516.019C252.259 508.003 252.404 505.389 252.42 467.596L252.441 427.645L241.938 427.296L231.428 426.947L231.036 466.64L230.644 506.334L227.014 513.598C216.693 534.242 184.999 534.333 173.986 513.748C171.424 508.959 171.29 507.096 170.71 468.203L170.108 427.645L159.513 427.296L148.918 426.947V464.965ZM428.405 429.723C427.444 431.242 425.398 435.484 423.868 439.145C422.337 442.807 417.279 454.249 412.639 464.568C407.994 474.893 400.89 490.688 396.851 499.676C392.813 508.664 386.595 522.451 383.029 530.312C379.469 538.172 376.553 544.846 376.553 545.141C376.553 545.436 381.772 545.678 388.152 545.678H399.751L404.729 534.784L409.702 523.89H440.805C464.266 523.89 472.192 524.261 473.062 525.404C473.691 526.237 476.075 531.139 478.357 536.298L482.497 545.678H494.274C507.865 545.683 507.264 547.434 499.467 530.548C497.007 525.222 492.088 514.328 488.544 506.334C478.314 483.311 469.942 464.638 466.012 456.106C464.014 451.773 460.346 443.596 457.871 437.937L453.36 427.645L441.761 427.301C430.811 426.979 430.065 427.113 428.405 429.723ZM450.385 472.439C453.177 479.096 457.334 488.573 459.621 493.502C464.733 504.503 466.838 503.424 441.003 503.037L419.142 502.704L422.16 495.44C423.819 491.445 427.938 481.91 431.316 474.254C434.688 466.597 438.249 458.436 439.221 456.117L440.993 451.902L443.151 456.117C444.338 458.436 447.592 465.781 450.385 472.439Z" fill="#A52027"/>
<path fill-rule="evenodd" clip-rule="evenodd" d="M214.744 142.092L207.639 151.327L192.029 156.922L176.413 162.521L171.14 178.247C164.685 197.501 164.626 195.428 171.977 205.957L178.088 214.709L178.824 231.927L179.56 249.14L189.231 256.072C194.547 259.884 200.895 264.458 203.338 266.235L207.774 269.467L216.183 266.923C227.659 263.449 233.26 263.696 248.929 268.378L262.376 272.388L276.289 262.246L290.203 252.109L290.955 240.222L291.701 228.341L299.923 216.292C304.439 209.672 308.638 203.509 309.251 202.601C309.992 201.501 308.547 195.38 304.89 184.159L299.424 167.364L288.646 163.644L277.868 159.917L267.628 146.393L257.387 132.863H239.618H221.848L214.744 142.092Z" fill="#FBFBFB"/>
</svg>
